{"title":"Geordie Shore Big Birthday Battle S01E03 1080P WEB-DL AAC2 0 H 2","uid":14689284,"size":1557045077,"categoryP":"video","categoryS":"hd___tv_shows","magnet":"?xt=urn:btih:d73fa2c6d251b01e7ea92c3b256984d7817be94e&amp;dn=Geordie+Shore+Big+Birthday+Battle+S01E03+1080P+WEB-DL+AAC2+0+H+2&amp;tr=udp%3A%2F%2Ftracker.leechers-paradise.org%3A6969&amp;tr=udp%3A%2F%2Fzer0day.ch%3A1337&amp;tr=udp%3A%2F%2Fopen.demonii.com%3A1337&amp;tr=udp%3A%2F%2Ftracker.coppersurfer.tk%3A6969&amp;tr=udp%3A%2F%2Fexodus.desync.com%3A6969","seeders":4,"leechers":1,"uploader":"jmanwf","files":1,"time":1464181974,"description":"Description\r\nBoss Anna is livid after viewing some embarrassing footage. The house has been trashed! Two more old housemates arrive. Marty kicks off over Chlow, and Gary goes on a date with Charlotte\r\n\r\n\r\nVideo\r\nID : 2\r\nFormat : AVC\r\nFormat/Info : Advanced Video Codec\r\nFormat profile :   \r\nFormat settings, CABAC : Yes\r\nFormat settings, ReFrames : 4 frames\r\nCodec ID : avc1\r\nCodec ID/Info : Advanced Video Coding\r\nDuration : 41mn 22s\r\nBit rate : 4 888 Kbps\r\nWidth : 1 920 pixels\r\nHeight : 1 080 pixels\r\nDisplay aspect ratio : 16:9\r\nFrame rate mode : Constant\r\nFrame rate : 25.000 fps\r\nColor space : YUV\r\nChroma subsampling : 4:2:0\r\nBit depth : 8 bits\r\nScan type : Progressive\r\nBits/(Pixel*Frame) : 0.094\r\nStream size : 1.41 GiB (97%)\r\nLanguage : English\r\nEncoded date : UTC 2016-05-25 05:48:05\r\nTagged date : UTC 2016-05-25 05:50:27\r\nColor range : Limited\r\nColor primaries : BT.709\r\nTransfer characteristics : BT.709\r\nMatrix coefficients : BT.709\r\n\r\nAudio\r\nID : 1\r\nFormat : AAC\r\nFormat/Info : Advanced Audio Codec\r\nFormat profile : LC\r\nCodec ID : 40\r\nDuration : 41mn 22s\r\nBit rate mode : Variable\r\nBit rate : 126 Kbps\r\nMaximum bit rate : 219 Kbps\r\nChannel(s) : 2 channels\r\nChannel positions : Front: L R\r\nSampling rate : 48.0 KHz\r\nFrame rate : 46.875 fps (1024 spf)\r\nCompression mode : Lossy\r\nStream size : 37.2 MiB (3%)\r\nLanguage : English\r\nDefault : Yes\r\nAlternate group : 1\r\nEncoded date : UTC 2016-05-25 05:48:05\r\nTagged date : UTC 2016-05-25 05:50:27","torrent":{"xt":"urn:btih:d73fa2c6d251b01e7ea92c3b256984d7817be94e","amp;dn":"Geordie+Shore+Big+Birthday+Battle+S01E03+1080P+WEB-DL+AAC2+0+H+2","amp;tr":["udp%3A%2F%2Ftracker.leechers-paradise.org%3A6969","udp%3A%2F%2Fzer0day.ch%3A1337","udp%3A%2F%2Fopen.demonii.com%3A1337","udp%3A%2F%2Ftracker.coppersurfer.tk%3A6969","udp%3A%2F%2Fexodus.desync.com%3A6969"],"infoHash":"d73fa2c6d251b01e7ea92c3b256984d7817be94e","infoHashBuffer":{"type":"Buffer","data":[215,63,162,198,210,81,176,30,126,169,44,59,37,105,132,215,129,123,233,78]},"announce":[],"urlList":[]}}